<svg xmlns="http://www.w3.org/2000/svg" xmlns:xlink="http://www.w3.org/1999/xlink"><symbol viewBox="0 0 348 311" id="pirate" xmlns="http://www.w3.org/2000/svg"><g fill="none" fill-rule="evenodd"><path fill="#000" d="M7 143h65v43H7zM271 143h65v43h-65zM7 222h69l22.71 43H7zM269 222h69v43h-93.385z"/><path d="M64.913 110.5L24 77.5l34.597-32.65V6.294C74.349 6.936 86.13 9.504 93.943 14c7.812 4.495 16.135 13.495 24.97 27 16.785-26.745 45.118-31.181 85-13.309 39.882 17.873 59.823 45.476 59.823 82.809H64.913z" fill="#D96D1C"/><path d="M171.5 14c-59.094 0-107 47.95-107 107.098v82.793c0 48.661 39.412 88.109 88.028 88.109h37.944c48.616 0 88.028-39.448 88.028-88.11v-82.792C278.5 61.95 230.594 14 171.5 14zm0 15.191c50.712 0 91.823 41.148 91.823 91.907v82.793c0 40.271-32.617 72.918-72.851 72.918h-37.944c-40.234 0-72.85-32.647-72.85-72.918v-82.793c0-50.759 41.11-91.907 91.822-91.907z" fill="#000" fill-rule="nonzero"/><path fill="#000" fill-rule="nonzero" d="M81.377 97v14.079h-66.18v185.84h317.606V111.08h-66.09V97H348v214H0V97z"/><path d="M58.184 46.35c4.002-1.253 8.265.965 9.523 4.952 1.257 3.988-.969 8.236-4.97 9.489-11.25 3.521-21.266 8.66-30.089 15.432l-.332.258.348.33 1.426 1.335C48.46 91.456 59.147 96.708 72.258 96.86l.59.003h143.056c4.195 0 7.596 3.389 7.596 7.569 0 4.07-3.224 7.39-7.266 7.561l-.33.007H72.85c-16.471 0-29.594-5.754-45.06-19.15l-1.37-1.201-.69-.616-1.391-1.262a206.163 206.163 0 01-4.986-4.736l-1.462-1.446-1.48-1.488a289.15 289.15 0 01-.748-.759 7.55 7.55 0 01.274-10.843c11.956-11.026 26.065-19.084 42.248-24.15zM129 124c-13.531 0-24.5 10.969-24.5 24.5S115.469 173 129 173s24.5-10.969 24.5-24.5S142.531 124 129 124zm0 15.313a9.188 9.188 0 110 18.375 9.188 9.188 0 010-18.375zM214 124c-13.531 0-24.5 10.969-24.5 24.5S200.469 173 214 173s24.5-10.969 24.5-24.5S227.531 124 214 124zm0 15.313a9.188 9.188 0 110 18.375 9.188 9.188 0 010-18.375z" fill="#000" fill-rule="nonzero"/><path d="M58.295.013c31.389 1.815 52.031 13.717 60.379 35.836l.25.674 2.576 7.103-14.216 5.15-2.576-7.103C99.443 27.16 86.618 18.5 65.076 15.791l-.937-.113-.061.494C61.698 36.395 68.567 53.46 84.983 68.1l.628.555 5.687 4.978L81.336 85l-5.687-4.978C52.792 60.017 44.256 34.985 50.465 5.976A7.56 7.56 0 0157.957 0l.338.012zM120.734 188c4.915 0 8.92 3.881 9.1 8.736l.007.34-.001 44.795h81.898v-44.794c0-4.9 3.895-8.892 8.766-9.07l.341-.007H278.5v15.128l-51.585-.001.001 44.796c0 4.9-3.894 8.892-8.765 9.07l-.341.007h-94.04c-4.915 0-8.921-3.881-9.1-8.736l-.007-.34v-44.797H64.5V188h56.234z" fill="#000" fill-rule="nonzero"/><path d="M166.856 166.916a7.478 7.478 0 0110.316.304l.249.264 7.147 7.949c2.775 3.085 2.532 7.844-.543 10.628a7.478 7.478 0 01-10.34-.28l-.25-.265-2.148-2.389-3.29 2.957a7.478 7.478 0 01-10.34-.327l-.248-.266a7.545 7.545 0 01.326-10.376l.265-.25 8.856-7.949zM331.429 68C335.61 68 339 73.149 339 79.5c0 6.184-3.214 11.228-7.243 11.49l-.328.01H293.57C289.39 91 286 85.851 286 79.5c0-6.184 3.214-11.228 7.243-11.49l.328-.01h37.858z" fill="#000" fill-rule="nonzero"/></g></symbol><symbol viewBox="0 0 1311 328" id="sparrow" xmlns="http://www.w3.org/2000/svg"><g fill="none" fill-rule="evenodd"><path d="M438.75 276c13.167 0 24.25-2.375 33.25-7.125s15.75-10.917 20.25-18.5S499 234.583 499 225.75c0-10-2.042-18.25-6.125-24.75s-9.542-11.75-16.375-15.75-14.583-7.417-23.25-10.25c-9-3.167-17-5.958-24-8.375s-12.5-5.458-16.5-9.125-6-8.917-6-15.75c0-7.667 2.708-13.667 8.125-18s12.292-6.417 20.625-6.25c6.5 0 12 1.333 16.5 4s7.917 6.042 10.25 10.125 3.5 8.375 3.5 12.875h28c-.167-9.833-2.667-18.458-7.5-25.875-4.833-7.417-11.542-13.208-20.125-17.375S447.583 95 436.25 95c-11.5 0-21.542 2.042-30.125 6.125-8.583 4.083-15.25 9.792-20 17.125s-7.042 15.917-6.875 25.75c0 11.667 3.375 21.083 10.125 28.25 6.75 7.167 16.875 13 30.375 17.5 6.833 2.333 13.333 4.5 19.5 6.5s11.625 4.25 16.375 6.75 8.5 5.667 11.25 9.5 4.125 8.833 4.125 15c0 7.667-2.875 13.958-8.625 18.875s-13.708 7.375-23.875 7.375c-11.5 0-20.417-3.25-26.75-9.75-6.333-6.5-9.583-14.417-9.75-23.75h-28c.167 11.5 2.958 21.417 8.375 29.75 5.417 8.333 12.958 14.75 22.625 19.25s20.917 6.75 33.75 6.75zm111.417 52v-74c4.333 7 10.208 12.417 17.625 16.25 7.416 3.833 15.958 5.75 25.625 5.75 12.166 0 22.833-2.792 32-8.375 9.166-5.583 16.375-13.25 21.625-23s7.875-20.875 7.875-33.375-2.625-23.667-7.875-33.5c-5.25-9.833-12.459-17.583-21.625-23.25-9.167-5.667-19.75-8.5-31.75-8.5-11 0-20 2.25-27 6.75s-12.5 9.667-16.5 15.5l-2.75-19.25h-23.75v179h26.5zm38.75-75c-11.334 0-20.625-3.875-27.875-11.625S550.167 223.5 550.167 211c0-12.333 3.625-22.417 10.875-30.25 7.25-7.833 16.541-11.75 27.875-11.75 7.666 0 14.416 1.792 20.25 5.375 5.833 3.583 10.416 8.542 13.75 14.875 3.333 6.333 5 13.583 5 21.75 0 12.5-3.667 22.625-11 30.375-7.334 7.75-16.667 11.625-28 11.625zm133.416 23c10.834 0 19.584-2.333 26.25-7 6.667-4.667 11.75-10.417 15.25-17.25l2.25 21.25h23v-76.25c0-15.667-4.75-28.042-14.25-37.125-9.5-9.083-22.916-13.625-40.25-13.625-9.666 0-18.541 1.708-26.625 5.125-8.083 3.417-14.75 8.333-20 14.75S679.667 180 678.833 189h26.5c1.167-7 4.459-12.292 9.875-15.875 5.417-3.583 11.792-5.375 19.125-5.375 8.334 0 15.125 2.417 20.375 7.25s7.875 12.083 7.875 21.75V199h-32.5c-17.333 0-30.666 3.5-40 10.5-9.333 7-14 16.5-14 28.5 0 6.833 1.667 13.125 5 18.875 3.334 5.75 8.417 10.375 15.25 13.875 6.834 3.5 15.5 5.25 26 5.25zm5.25-21.5c-7.333 0-13.125-1.625-17.375-4.875s-6.375-7.708-6.375-13.375c0-5.5 2.209-10.083 6.625-13.75 4.417-3.667 11.875-5.5 22.375-5.5h29.5c-.666 6.833-2.375 13.083-5.125 18.75s-6.583 10.208-11.5 13.625c-4.916 3.417-10.958 5.125-18.125 5.125zM843.25 273v-59.5c0-10.167 1.708-18.125 5.125-23.875s8-9.833 13.75-12.25 12.292-3.625 19.625-3.625H889V146c-11 0-20.375 2.375-28.125 7.125s-13.792 11.208-18.125 19.375L840.5 149h-23.75v124h26.5zm91.667 0v-59.5c0-10.167 1.708-18.125 5.125-23.875 3.416-5.75 8-9.833 13.75-12.25s12.291-3.625 19.625-3.625h7.25V146c-11 0-20.375 2.375-28.125 7.125s-13.792 11.208-18.125 19.375l-2.25-23.5h-23.75v124h26.5zm119.666 3c11.834 0 22.5-2.708 32-8.125s17.042-13 22.625-22.75c5.584-9.75 8.375-21.125 8.375-34.125s-2.791-24.375-8.375-34.125c-5.583-9.75-13.083-17.333-22.5-22.75-9.416-5.417-20.041-8.125-31.875-8.125-11.666 0-22.25 2.708-31.75 8.125s-17.041 13-22.625 22.75c-5.583 9.75-8.375 21.125-8.375 34.125s2.75 24.375 8.25 34.125 12.959 17.333 22.375 22.75c9.417 5.417 20.042 8.125 31.875 8.125zm0-22.75c-6.333 0-12.166-1.583-17.5-4.75-5.333-3.167-9.666-7.875-13-14.125-3.333-6.25-5-14.042-5-23.375s1.667-17.125 5-23.375c3.334-6.25 7.709-10.958 13.125-14.125 5.417-3.167 11.292-4.75 17.625-4.75 6.334 0 12.209 1.583 17.625 4.75 5.417 3.167 9.75 7.875 13 14.125s4.875 14.042 4.875 23.375-1.666 17.125-5 23.375c-3.333 6.25-7.708 10.958-13.125 14.125-5.416 3.167-11.291 4.75-17.625 4.75zM1190.25 273l28.5-97.5 28.5 97.5h27.25l36.5-124h-26.5l-24 93.5-27-93.5H1204l-27 93.5-24-93.5h-26.5l36.5 124h27.25z" fill="#000" fill-rule="nonzero"/><path d="M64.5 112L23.587 79l34.597-32.65V0L118.5 42.5c16.785-26.745 45.118-31.181 85-13.309 39.882 17.873 59.823 45.476 59.823 82.809H64.5z" fill="#E02020"/><path d="M171.5 14c-59.094 0-107 47.95-107 107.098v82.793c0 48.661 39.412 88.109 88.028 88.109h37.944c48.616 0 88.028-39.448 88.028-88.11v-82.792C278.5 61.95 230.594 14 171.5 14zm0 15.191c50.712 0 91.823 41.148 91.823 91.907v82.793c0 40.271-32.617 72.918-72.851 72.918h-37.944c-40.234 0-72.85-32.647-72.85-72.918v-82.793c0-50.759 41.11-91.907 91.822-91.907z" fill="#000" fill-rule="nonzero"/><path fill="#000" fill-rule="nonzero" d="M81.877 97v15.197h-66.18v200.604h317.606V112.198h-66.09V97H348.5v231H.5V97z"/><path d="M58.184 46.35c4.002-1.253 8.265.965 9.523 4.952 1.257 3.988-.969 8.236-4.97 9.489-11.25 3.521-21.266 8.66-30.089 15.432l-.332.258.348.33 1.426 1.335C48.46 91.456 59.147 96.708 72.258 96.86l.59.003h143.056c4.195 0 7.596 3.389 7.596 7.569 0 4.07-3.224 7.39-7.266 7.561l-.33.007H72.85c-16.471 0-29.594-5.754-45.06-19.15l-1.37-1.201-.69-.616-1.391-1.262a206.163 206.163 0 01-4.986-4.736l-1.462-1.446-1.48-1.488a289.15 289.15 0 01-.748-.759 7.55 7.55 0 01.274-10.843c11.956-11.026 26.065-19.084 42.248-24.15z" fill="#000" fill-rule="nonzero"/><path d="M170.936 46c4.177 0 7.564 3.425 7.564 7.65 0 4.224-3.387 7.648-7.564 7.648-18.298 0-33.86 7.565-47.158 23.065a7.506 7.506 0 01-10.67.766c-3.156-2.769-3.495-7.6-.757-10.79C128.452 55.568 148.138 46 170.936 46zM129 124c-13.531 0-24.5 10.969-24.5 24.5S115.469 173 129 173s24.5-10.969 24.5-24.5S142.531 124 129 124zm0 15.313a9.188 9.188 0 110 18.375 9.188 9.188 0 010-18.375zM214 124c-13.531 0-24.5 10.969-24.5 24.5S200.469 173 214 173s24.5-10.969 24.5-24.5S227.531 124 214 124zm0 15.313a9.188 9.188 0 110 18.375 9.188 9.188 0 010-18.375zM58.295.013c31.389 1.815 52.031 13.717 60.379 35.836l.25.674 2.576 7.103-14.216 5.15-2.576-7.103C99.443 27.16 86.618 18.5 65.076 15.791l-.937-.113-.061.494C61.698 36.395 68.567 53.46 84.983 68.1l.628.555 5.687 4.978L81.336 85l-5.687-4.978C52.792 60.017 44.256 34.985 50.465 5.976A7.56 7.56 0 0157.957 0l.338.012zM120.734 179c4.915 0 8.92 3.881 9.1 8.736l.007.34-.001 44.795h81.898v-44.794c0-4.9 3.895-8.892 8.766-9.07l.341-.007H278.5v15.128l-51.585-.001.001 44.796c0 4.9-3.894 8.892-8.765 9.07l-.341.007h-94.04c-4.915 0-8.921-3.881-9.1-8.736l-.007-.34v-44.797H64.5V179h56.234z" fill="#000" fill-rule="nonzero"/><path d="M147 216c4.033 0 7.323 3.267 7.493 7.364l.007.334v16.604c0 4.252-3.358 7.698-7.5 7.698-4.033 0-7.323-3.267-7.493-7.364l-.007-.334v-16.604c0-4.252 3.358-7.698 7.5-7.698zM170 216c4.033 0 7.323 3.267 7.493 7.364l.007.334v16.604c0 4.252-3.358 7.698-7.5 7.698-4.033 0-7.323-3.267-7.493-7.364l-.007-.334v-16.604c0-4.252 3.358-7.698 7.5-7.698zM196 216c4.033 0 7.323 3.267 7.493 7.364l.007.334v16.604c0 4.252-3.358 7.698-7.5 7.698-4.033 0-7.323-3.267-7.493-7.364l-.007-.334v-16.604c0-4.252 3.358-7.698 7.5-7.698zM187.915 255c4.19 0 7.585 3.358 7.585 7.5 0 4.033-3.22 7.323-7.256 7.493l-.329.007h-34.83c-4.19 0-7.585-3.358-7.585-7.5 0-4.033 3.22-7.323 7.256-7.493l.329-.007h34.83zM166.856 166.916a7.478 7.478 0 0110.316.304l.249.264 7.147 7.949c2.775 3.085 2.532 7.844-.543 10.628a7.478 7.478 0 01-10.34-.28l-.25-.265-2.148-2.389-3.29 2.957a7.478 7.478 0 01-10.34-.327l-.248-.266a7.545 7.545 0 01.326-10.376l.265-.25 8.856-7.949zM330.929 76c4.181 0 7.571 3.358 7.571 7.5 0 4.033-3.214 7.323-7.243 7.493l-.328.007H293.07c-4.181 0-7.571-3.358-7.571-7.5 0-4.033 3.214-7.323 7.243-7.493l.328-.007h37.858z" fill="#000" fill-rule="nonzero"/></g></symbol></svg>