<?xml version="1.0" encoding="UTF-8"?>
<svg width="348px" height="311px" viewBox="0 0 348 311" version="1.1" xmlns="http://www.w3.org/2000/svg" xmlns:xlink="http://www.w3.org/1999/xlink">
    <title>pirate copy 2</title>
    <g id="outlines" stroke="none" stroke-width="1" fill="none" fill-rule="evenodd">
        <g id="pirate-copy-2">
            <rect id="Rectangle-Copy-2" fill="#000000" x="7" y="143" width="65" height="43"></rect>
            <rect id="Rectangle-Copy-6" fill="#000000" x="271" y="143" width="65" height="43"></rect>
            <polygon id="Rectangle-Copy-4" fill="#000000" points="7 222 76 222 98.7102051 265 7 265"></polygon>
            <polygon id="Rectangle-Copy-7" fill="#000000" points="269 222 338 222 338 265 244.614502 265"></polygon>
            <path d="M64.9128418,110.5 L24,77.5 L58.5967421,44.8498679 L58.5967421,6.29388428 C74.3486235,6.93616659 86.1306664,9.50487183 93.9428711,14 C101.755076,18.4951282 110.078399,27.4950138 118.912842,40.9996569 C135.697712,14.2548948 164.031045,9.81876138 203.912842,27.6912568 C243.794638,45.5637523 263.735537,73.1666667 263.735537,110.5 L64.9128418,110.5 Z" id="cap" fill="#D96D1C"></path>
            <path d="M171.5,14 C112.405532,14 64.5,61.9495693 64.5,121.098361 L64.5,203.89071 C64.5,252.552127 103.911643,292 152.528369,292 L190.471631,292 C239.088357,292 278.5,252.552127 278.5,203.89071 L278.5,121.098361 C278.5,61.9495693 230.594468,14 171.5,14 Z M171.5,29.1912568 C222.212274,29.1912568 263.322695,70.3394688 263.322695,121.098361 L263.322695,203.89071 C263.322695,244.162228 230.706163,276.808743 190.471631,276.808743 L152.528369,276.808743 C112.293837,276.808743 79.677305,244.162228 79.677305,203.89071 L79.677305,121.098361 C79.677305,70.3394688 120.787726,29.1912568 171.5,29.1912568 Z" id="Rectangle-Copy" fill="#000000" fill-rule="nonzero"></path>
            <polygon id="Path-Copy" fill="#000000" fill-rule="nonzero" points="81.3766248 97 81.3766248 111.078947 15.1965066 111.079121 15.1965066 296.919818 332.803493 296.919818 332.803493 111.079121 266.712603 111.078947 266.712603 97 348 97 348 311 0 311 0 97"></polygon>
            <path d="M58.1839004,46.3498679 C62.185994,45.0972353 66.4494273,47.3145387 67.7065451,51.3023537 C68.9636629,55.2901688 66.7384203,59.5383911 62.7363266,60.7910237 C51.4867193,64.3120871 41.4707589,69.4518345 32.6483655,76.2232211 L32.3159978,76.4812206 L32.6638489,76.8103331 L34.0895582,78.1457166 C48.4612177,91.4567887 59.1465819,96.7077724 72.2583111,96.859752 L72.8487286,96.8631592 L215.90448,96.8631592 C220.09937,96.8631592 223.5,100.251656 223.5,104.43158 C223.5,108.501505 220.275996,111.82111 216.233958,111.993008 L215.90448,112 L72.8487286,112 C56.3776924,112 43.2552234,106.245608 27.7896394,92.8504647 L26.4188035,91.6486634 C26.1892691,91.4450423 25.9591918,91.2397569 25.7285534,91.032801 L24.3378461,89.770973 C22.7071619,88.2753425 21.0472131,86.6972741 19.3517909,85.03471 L17.8897398,83.5889142 L16.409445,82.1014447 C16.1611606,81.8500444 15.9120799,81.5968956 15.6621847,81.3419924 C12.6748386,78.2947788 12.7987897,73.392224 15.9363335,70.4987626 C27.8919445,59.4732277 42.0005603,51.4151617 58.1839004,46.3498679 Z" id="Path-Copy-2" fill="#000000" fill-rule="nonzero"></path>
            <path d="M129,124 C115.469024,124 104.5,134.969024 104.5,148.5 C104.5,162.030976 115.469024,173 129,173 C142.530976,173 153.5,162.030976 153.5,148.5 C153.5,134.969024 142.530976,124 129,124 Z M129,139.3125 C134.074116,139.3125 138.1875,143.425884 138.1875,148.5 C138.1875,153.574116 134.074116,157.6875 129,157.6875 C123.925884,157.6875 119.8125,153.574116 119.8125,148.5 C119.8125,143.425884 123.925884,139.3125 129,139.3125 Z" id="Oval-Copy" fill="#000000" fill-rule="nonzero"></path>
            <path d="M214,124 C200.469024,124 189.5,134.969024 189.5,148.5 C189.5,162.030976 200.469024,173 214,173 C227.530976,173 238.5,162.030976 238.5,148.5 C238.5,134.969024 227.530976,124 214,124 Z M214,139.3125 C219.074116,139.3125 223.1875,143.425884 223.1875,148.5 C223.1875,153.574116 219.074116,157.6875 214,157.6875 C208.925884,157.6875 204.8125,153.574116 204.8125,148.5 C204.8125,143.425884 208.925884,139.3125 214,139.3125 Z" id="Oval-Copy-2" fill="#000000" fill-rule="nonzero"></path>
            <path d="M58.2948486,0.0127618708 C89.6838547,1.8277723 110.326483,13.7295059 118.673984,35.8491311 L118.923174,36.5225505 L121.5,43.6259807 L107.284392,48.7764615 L104.707565,41.6730313 C99.4428816,27.1600953 86.6178892,18.4999221 65.0756002,15.7905009 L64.1389592,15.678496 L64.0780219,16.172086 C61.6973926,36.3948622 68.566912,53.4587319 84.9826381,68.0987947 L85.6106095,68.6535829 L91.2983331,73.6315531 L81.336262,85 L75.6485384,80.0220297 C52.7916266,60.0173608 44.2559737,34.984836 50.4648966,5.97553313 C51.2216223,2.43996241 54.3710705,-0.0481237484 57.9574091,0.000706234547 L58.2948486,0.0127618708 Z" id="Path-3-Copy" fill="#000000" fill-rule="nonzero"></path>
            <path d="M120.73412,188 C125.649133,188 129.65469,191.881157 129.834221,196.736413 L129.840503,197.076696 L129.839816,241.870847 L211.738071,241.870847 L211.738709,197.076696 C211.738709,192.177705 215.632561,188.185207 220.503697,188.006261 L220.845092,188 L278.5,188 L278.5,203.127826 L226.915376,203.126972 L226.916014,247.923304 C226.916014,252.822295 223.022163,256.814793 218.151027,256.993739 L217.809631,257 L123.769581,257 C118.854567,257 114.849011,253.118843 114.669479,248.263587 L114.663198,247.923304 L114.662511,203.126972 L64.5,203.127826 L64.5,188 L120.73412,188 Z" id="Path-5-Copy" fill="#000000" fill-rule="nonzero"></path>
            <path d="M166.856167,166.915966 C169.842485,164.235544 174.378752,164.395718 177.171574,167.219537 L177.420572,167.483581 L184.56834,175.432784 C187.342691,178.518207 187.09965,183.276734 184.025491,186.061251 C181.041748,188.76387 176.487626,188.613565 173.685632,185.781277 L173.435825,185.516413 L171.287477,183.127489 L167.996076,186.084028 C165.000169,188.773057 160.446772,188.602052 157.657587,185.757056 L157.408978,185.491059 C154.729765,182.484174 154.900146,177.914093 157.734756,175.114689 L157.999782,174.865169 L166.856167,166.915966 Z" id="Path-8-Copy" fill="#000000" fill-rule="nonzero"></path>
            <path d="M331.428571,68 C335.610156,68 339,73.1487254 339,79.5 C339,85.6841358 335.786221,90.7281817 331.757004,90.9893751 L331.428571,91 L293.571429,91 C289.389844,91 286,85.8512746 286,79.5 C286,73.3158642 289.213779,68.2718183 293.242996,68.0106249 L293.571429,68 L331.428571,68 Z" id="Line-2-Copy" fill="#000000" fill-rule="nonzero"></path>
        </g>
    </g>
</svg>