<?xml version="1.0" encoding="UTF-8"?>
<svg width="1311px" height="328px" viewBox="0 0 1311 328" version="1.1" xmlns="http://www.w3.org/2000/svg" xmlns:xlink="http://www.w3.org/1999/xlink">
    <title>Artboard</title>
    <g id="Artboard" stroke="none" stroke-width="1" fill="none" fill-rule="evenodd">
        <path d="M438.75,276 C451.916667,276 463,273.625 472,268.875 C481,264.125 487.75,257.958333 492.25,250.375 C496.75,242.791667 499,234.583333 499,225.75 C499,215.75 496.958333,207.5 492.875,201 C488.791667,194.5 483.333333,189.25 476.5,185.25 C469.666667,181.25 461.916667,177.833333 453.25,175 C444.25,171.833333 436.25,169.041667 429.25,166.625 C422.25,164.208333 416.75,161.166667 412.75,157.5 C408.75,153.833333 406.75,148.583333 406.75,141.75 C406.75,134.083333 409.458333,128.083333 414.875,123.75 C420.291667,119.416667 427.166667,117.333333 435.5,117.5 C442,117.5 447.5,118.833333 452,121.5 C456.5,124.166667 459.916667,127.541667 462.25,131.625 C464.583333,135.708333 465.75,140 465.75,144.5 L465.75,144.5 L493.75,144.5 C493.583333,134.666667 491.083333,126.041667 486.25,118.625 C481.416667,111.208333 474.708333,105.416667 466.125,101.25 C457.541667,97.0833333 447.583333,95 436.25,95 C424.75,95 414.708333,97.0416667 406.125,101.125 C397.541667,105.208333 390.875,110.916667 386.125,118.25 C381.375,125.583333 379.083333,134.166667 379.25,144 C379.25,155.666667 382.625,165.083333 389.375,172.25 C396.125,179.416667 406.25,185.25 419.75,189.75 C426.583333,192.083333 433.083333,194.25 439.25,196.25 C445.416667,198.25 450.875,200.5 455.625,203 C460.375,205.5 464.125,208.666667 466.875,212.5 C469.625,216.333333 471,221.333333 471,227.5 C471,235.166667 468.125,241.458333 462.375,246.375 C456.625,251.291667 448.666667,253.75 438.5,253.75 C427,253.75 418.083333,250.5 411.75,244 C405.416667,237.5 402.166667,229.583333 402,220.25 L402,220.25 L374,220.25 C374.166667,231.75 376.958333,241.666667 382.375,250 C387.791667,258.333333 395.333333,264.75 405,269.25 C414.666667,273.75 425.916667,276 438.75,276 Z M550.166667,328 L550.166667,254 C554.5,261 560.375,266.416667 567.791667,270.25 C575.208333,274.083333 583.75,276 593.416667,276 C605.583333,276 616.25,273.208333 625.416667,267.625 C634.583333,262.041667 641.791667,254.375 647.041667,244.625 C652.291667,234.875 654.916667,223.75 654.916667,211.25 C654.916667,198.75 652.291667,187.583333 647.041667,177.75 C641.791667,167.916667 634.583333,160.166667 625.416667,154.5 C616.25,148.833333 605.666667,146 593.666667,146 C582.666667,146 573.666667,148.25 566.666667,152.75 C559.666667,157.25 554.166667,162.416667 550.166667,168.25 L550.166667,168.25 L547.416667,149 L523.666667,149 L523.666667,328 L550.166667,328 Z M588.916667,253 C577.583333,253 568.291667,249.125 561.041667,241.375 C553.791667,233.625 550.166667,223.5 550.166667,211 C550.166667,198.666667 553.791667,188.583333 561.041667,180.75 C568.291667,172.916667 577.583333,169 588.916667,169 C596.583333,169 603.333333,170.791667 609.166667,174.375 C615,177.958333 619.583333,182.916667 622.916667,189.25 C626.25,195.583333 627.916667,202.833333 627.916667,211 C627.916667,223.5 624.25,233.625 616.916667,241.375 C609.583333,249.125 600.25,253 588.916667,253 Z M722.333333,276 C733.166667,276 741.916667,273.666667 748.583333,269 C755.25,264.333333 760.333333,258.583333 763.833333,251.75 L763.833333,251.75 L766.083333,273 L789.083333,273 L789.083333,196.75 C789.083333,181.083333 784.333333,168.708333 774.833333,159.625 C765.333333,150.541667 751.916667,146 734.583333,146 C724.916667,146 716.041667,147.708333 707.958333,151.125 C699.875,154.541667 693.208333,159.458333 687.958333,165.875 C682.708333,172.291667 679.666667,180 678.833333,189 L678.833333,189 L705.333333,189 C706.5,182 709.791667,176.708333 715.208333,173.125 C720.625,169.541667 727,167.75 734.333333,167.75 C742.666667,167.75 749.458333,170.166667 754.708333,175 C759.958333,179.833333 762.583333,187.083333 762.583333,196.75 L762.583333,196.75 L762.583333,199 L730.083333,199 C712.75,199 699.416667,202.5 690.083333,209.5 C680.75,216.5 676.083333,226 676.083333,238 C676.083333,244.833333 677.75,251.125 681.083333,256.875 C684.416667,262.625 689.5,267.25 696.333333,270.75 C703.166667,274.25 711.833333,276 722.333333,276 Z M727.583333,254.5 C720.25,254.5 714.458333,252.875 710.208333,249.625 C705.958333,246.375 703.833333,241.916667 703.833333,236.25 C703.833333,230.75 706.041667,226.166667 710.458333,222.5 C714.875,218.833333 722.333333,217 732.833333,217 L732.833333,217 L762.333333,217 C761.666667,223.833333 759.958333,230.083333 757.208333,235.75 C754.458333,241.416667 750.625,245.958333 745.708333,249.375 C740.791667,252.791667 734.75,254.5 727.583333,254.5 Z M843.25,273 L843.25,213.5 C843.25,203.333333 844.958333,195.375 848.375,189.625 C851.791667,183.875 856.375,179.791667 862.125,177.375 C867.875,174.958333 874.416667,173.75 881.75,173.75 L881.75,173.75 L889,173.75 L889,146 C878,146 868.625,148.375 860.875,153.125 C853.125,157.875 847.083333,164.333333 842.75,172.5 L842.75,172.5 L840.5,149 L816.75,149 L816.75,273 L843.25,273 Z M934.916667,273 L934.916667,213.5 C934.916667,203.333333 936.625,195.375 940.041667,189.625 C943.458333,183.875 948.041667,179.791667 953.791667,177.375 C959.541667,174.958333 966.083333,173.75 973.416667,173.75 L973.416667,173.75 L980.666667,173.75 L980.666667,146 C969.666667,146 960.291667,148.375 952.541667,153.125 C944.791667,157.875 938.75,164.333333 934.416667,172.5 L934.416667,172.5 L932.166667,149 L908.416667,149 L908.416667,273 L934.916667,273 Z M1054.58333,276 C1066.41667,276 1077.08333,273.291667 1086.58333,267.875 C1096.08333,262.458333 1103.625,254.875 1109.20833,245.125 C1114.79167,235.375 1117.58333,224 1117.58333,211 C1117.58333,198 1114.79167,186.625 1109.20833,176.875 C1103.625,167.125 1096.125,159.541667 1086.70833,154.125 C1077.29167,148.708333 1066.66667,146 1054.83333,146 C1043.16667,146 1032.58333,148.708333 1023.08333,154.125 C1013.58333,159.541667 1006.04167,167.125 1000.45833,176.875 C994.875,186.625 992.083333,198 992.083333,211 C992.083333,224 994.833333,235.375 1000.33333,245.125 C1005.83333,254.875 1013.29167,262.458333 1022.70833,267.875 C1032.125,273.291667 1042.75,276 1054.58333,276 Z M1054.58333,253.25 C1048.25,253.25 1042.41667,251.666667 1037.08333,248.5 C1031.75,245.333333 1027.41667,240.625 1024.08333,234.375 C1020.75,228.125 1019.08333,220.333333 1019.08333,211 C1019.08333,201.666667 1020.75,193.875 1024.08333,187.625 C1027.41667,181.375 1031.79167,176.666667 1037.20833,173.5 C1042.625,170.333333 1048.5,168.75 1054.83333,168.75 C1061.16667,168.75 1067.04167,170.333333 1072.45833,173.5 C1077.875,176.666667 1082.20833,181.375 1085.45833,187.625 C1088.70833,193.875 1090.33333,201.666667 1090.33333,211 C1090.33333,220.333333 1088.66667,228.125 1085.33333,234.375 C1082,240.625 1077.625,245.333333 1072.20833,248.5 C1066.79167,251.666667 1060.91667,253.25 1054.58333,253.25 Z M1190.25,273 L1218.75,175.5 L1247.25,273 L1274.5,273 L1311,149 L1284.5,149 L1260.5,242.5 L1233.5,149 L1204,149 L1177,242.5 L1153,149 L1126.5,149 L1163,273 L1190.25,273 Z" id="Sparrow" fill="#000000" fill-rule="nonzero"></path>
        <g id="pirate">
            <path d="M64.5,112 L23.5871582,79 L58.1839004,46.3498679 L58.1839004,0 L118.5,42.4996569 C135.28487,15.7548948 163.618203,11.3187614 203.5,29.1912568 C243.381797,47.0637523 263.322695,74.6666667 263.322695,112 L64.5,112 Z" id="red" fill="#E02020"></path>
            <path d="M171.5,14 C112.405532,14 64.5,61.9495693 64.5,121.098361 L64.5,203.89071 C64.5,252.552127 103.911643,292 152.528369,292 L190.471631,292 C239.088357,292 278.5,252.552127 278.5,203.89071 L278.5,121.098361 C278.5,61.9495693 230.594468,14 171.5,14 Z M171.5,29.1912568 C222.212274,29.1912568 263.322695,70.3394688 263.322695,121.098361 L263.322695,203.89071 C263.322695,244.162228 230.706163,276.808743 190.471631,276.808743 L152.528369,276.808743 C112.293837,276.808743 79.677305,244.162228 79.677305,203.89071 L79.677305,121.098361 C79.677305,70.3394688 120.787726,29.1912568 171.5,29.1912568 Z" id="Rectangle-Copy" fill="#000000" fill-rule="nonzero"></path>
            <polygon id="Path-Copy" fill="#000000" fill-rule="nonzero" points="81.8766248 97 81.8766248 112.197368 15.6965066 112.197555 15.6965066 312.801299 333.303493 312.801299 333.303493 112.197555 267.212603 112.197368 267.212603 97 348.5 97 348.5 328 0.5 328 0.5 97"></polygon>
            <path d="M58.1839004,46.3498679 C62.185994,45.0972353 66.4494273,47.3145387 67.7065451,51.3023537 C68.9636629,55.2901688 66.7384203,59.5383911 62.7363266,60.7910237 C51.4867193,64.3120871 41.4707589,69.4518345 32.6483655,76.2232211 L32.3159978,76.4812206 L32.6638489,76.8103331 L34.0895582,78.1457166 C48.4612177,91.4567887 59.1465819,96.7077724 72.2583111,96.859752 L72.8487286,96.8631592 L215.90448,96.8631592 C220.09937,96.8631592 223.5,100.251656 223.5,104.43158 C223.5,108.501505 220.275996,111.82111 216.233958,111.993008 L215.90448,112 L72.8487286,112 C56.3776924,112 43.2552234,106.245608 27.7896394,92.8504647 L26.4188035,91.6486634 C26.1892691,91.4450423 25.9591918,91.2397569 25.7285534,91.032801 L24.3378461,89.770973 C22.7071619,88.2753425 21.0472131,86.6972741 19.3517909,85.03471 L17.8897398,83.5889142 L16.409445,82.1014447 C16.1611606,81.8500444 15.9120799,81.5968956 15.6621847,81.3419924 C12.6748386,78.2947788 12.7987897,73.392224 15.9363335,70.4987626 C27.8919445,59.4732277 42.0005603,51.4151617 58.1839004,46.3498679 Z" id="Path-Copy-2" fill="#000000" fill-rule="nonzero"></path>
            <path d="M170.935809,46 C175.113396,46 178.5,49.4246207 178.5,53.6491045 C178.5,57.8735882 175.113396,61.298209 170.935809,61.298209 C152.637631,61.298209 137.075357,68.8632766 123.778064,84.3632332 C121.040492,87.5542771 116.263116,87.8969763 113.107496,85.1286732 C109.951876,82.3603702 109.612981,77.529365 112.350553,74.3383211 C128.452282,55.5693808 148.137675,46 170.935809,46 Z" id="Path-2-Copy" fill="#000000" fill-rule="nonzero"></path>
            <path d="M129,124 C115.469024,124 104.5,134.969024 104.5,148.5 C104.5,162.030976 115.469024,173 129,173 C142.530976,173 153.5,162.030976 153.5,148.5 C153.5,134.969024 142.530976,124 129,124 Z M129,139.3125 C134.074116,139.3125 138.1875,143.425884 138.1875,148.5 C138.1875,153.574116 134.074116,157.6875 129,157.6875 C123.925884,157.6875 119.8125,153.574116 119.8125,148.5 C119.8125,143.425884 123.925884,139.3125 129,139.3125 Z" id="Oval-Copy" fill="#000000" fill-rule="nonzero"></path>
            <path d="M214,124 C200.469024,124 189.5,134.969024 189.5,148.5 C189.5,162.030976 200.469024,173 214,173 C227.530976,173 238.5,162.030976 238.5,148.5 C238.5,134.969024 227.530976,124 214,124 Z M214,139.3125 C219.074116,139.3125 223.1875,143.425884 223.1875,148.5 C223.1875,153.574116 219.074116,157.6875 214,157.6875 C208.925884,157.6875 204.8125,153.574116 204.8125,148.5 C204.8125,143.425884 208.925884,139.3125 214,139.3125 Z" id="Oval-Copy-2" fill="#000000" fill-rule="nonzero"></path>
            <path d="M58.2948486,0.0127618708 C89.6838547,1.8277723 110.326483,13.7295059 118.673984,35.8491311 L118.923174,36.5225505 L121.5,43.6259807 L107.284392,48.7764615 L104.707565,41.6730313 C99.4428816,27.1600953 86.6178892,18.4999221 65.0756002,15.7905009 L64.1389592,15.678496 L64.0780219,16.172086 C61.6973926,36.3948622 68.566912,53.4587319 84.9826381,68.0987947 L85.6106095,68.6535829 L91.2983331,73.6315531 L81.336262,85 L75.6485384,80.0220297 C52.7916266,60.0173608 44.2559737,34.984836 50.4648966,5.97553313 C51.2216223,2.43996241 54.3710705,-0.0481237484 57.9574091,0.000706234547 L58.2948486,0.0127618708 Z" id="Path-3-Copy" fill="#000000" fill-rule="nonzero"></path>
            <path d="M120.73412,179 C125.649133,179 129.65469,182.881157 129.834221,187.736413 L129.840503,188.076696 L129.839816,232.870847 L211.738071,232.870847 L211.738709,188.076696 C211.738709,183.177705 215.632561,179.185207 220.503697,179.006261 L220.845092,179 L278.5,179 L278.5,194.127826 L226.915376,194.126972 L226.916014,238.923304 C226.916014,243.822295 223.022163,247.814793 218.151027,247.993739 L217.809631,248 L123.769581,248 C118.854567,248 114.849011,244.118843 114.669479,239.263587 L114.663198,238.923304 L114.662511,194.126972 L64.5,194.127826 L64.5,179 L120.73412,179 Z" id="Path-5-Copy" fill="#000000" fill-rule="nonzero"></path>
            <path d="M147,216 C151.033132,216 154.322727,219.26745 154.493071,223.363957 L154.5,223.697875 L154.5,240.302125 C154.5,244.553544 151.142136,248 147,248 C142.966868,248 139.677273,244.73255 139.506929,240.636043 L139.5,240.302125 L139.5,223.697875 C139.5,219.446456 142.857864,216 147,216 Z" id="Path-6-Copy" fill="#000000" fill-rule="nonzero"></path>
            <path d="M170,216 C174.033132,216 177.322727,219.26745 177.493071,223.363957 L177.5,223.697875 L177.5,240.302125 C177.5,244.553544 174.142136,248 170,248 C165.966868,248 162.677273,244.73255 162.506929,240.636043 L162.5,240.302125 L162.5,223.697875 C162.5,219.446456 165.857864,216 170,216 Z" id="Path-6-Copy-2" fill="#000000" fill-rule="nonzero"></path>
            <path d="M196,216 C200.033132,216 203.322727,219.26745 203.493071,223.363957 L203.5,223.697875 L203.5,240.302125 C203.5,244.553544 200.142136,248 196,248 C191.966868,248 188.677273,244.73255 188.506929,240.636043 L188.5,240.302125 L188.5,223.697875 C188.5,219.446456 191.857864,216 196,216 Z" id="Path-6-Copy-3" fill="#000000" fill-rule="nonzero"></path>
            <path d="M187.915426,255 C192.10427,255 195.5,258.357864 195.5,262.5 C195.5,266.533132 192.280641,269.822727 188.244429,269.993071 L187.915426,270 L153.084574,270 C148.89573,270 145.5,266.642136 145.5,262.5 C145.5,258.466868 148.719359,255.177273 152.755571,255.006929 L153.084574,255 L187.915426,255 Z" id="Path-7-Copy" fill="#000000" fill-rule="nonzero"></path>
            <path d="M166.856167,166.915966 C169.842485,164.235544 174.378752,164.395718 177.171574,167.219537 L177.420572,167.483581 L184.56834,175.432784 C187.342691,178.518207 187.09965,183.276734 184.025491,186.061251 C181.041748,188.76387 176.487626,188.613565 173.685632,185.781277 L173.435825,185.516413 L171.287477,183.127489 L167.996076,186.084028 C165.000169,188.773057 160.446772,188.602052 157.657587,185.757056 L157.408978,185.491059 C154.729765,182.484174 154.900146,177.914093 157.734756,175.114689 L157.999782,174.865169 L166.856167,166.915966 Z" id="Path-8-Copy" fill="#000000" fill-rule="nonzero"></path>
            <path d="M330.928571,76 C335.110156,76 338.5,79.3578644 338.5,83.5 C338.5,87.5331321 335.286221,90.8227272 331.257004,90.9930707 L330.928571,91 L293.071429,91 C288.889844,91 285.5,87.6421356 285.5,83.5 C285.5,79.4668679 288.713779,76.1772728 292.742996,76.0069293 L293.071429,76 L330.928571,76 Z" id="Line-2-Copy" fill="#000000" fill-rule="nonzero"></path>
        </g>
    </g>
</svg>